<svg xmlns="http://www.w3.org/2000/svg" width="196" height="58.75" viewBox="0 0 196 58.75"><title>logo</title><path d="M0,59.28l.17,0h11.3a.59.59,0,0,0,.42-.19l15-13.33L45.51,29.15,63.19,13.39c1-.85,1.86-1.77,2.89-2.52A12.21,12.21,0,0,1,76.2,8.74a12.45,12.45,0,0,1,8.18,5.77,11.62,11.62,0,0,1,1.88,6.3q0,19,0,38v.45H94V26.89c0-1.6,0-3.2,0-4.8,0-.83,0-1.66-.06-2.48a17.73,17.73,0,0,0-.55-3.4A20.28,20.28,0,0,0,86.11,5,20.54,20.54,0,0,0,70,1,20.56,20.56,0,0,0,61.8,4.37a34.37,34.37,0,0,0-3.21,2.69L39,24.54,20.29,41.19.83,58.53C.57,58.77.31,59,0,59.28ZM55.51,56.2H81.19c.63,0,.85-.21.85-.82V49.54c0-.6-.22-.83-.82-.83H29.8c-.6,0-.81.22-.81.83v4.29c0,.56,0,1.12,0,1.68a.63.63,0,0,0,.46.66,1.84,1.84,0,0,0,.41,0ZM82,21.11a8.39,8.39,0,1,0-8.4,8.37A8.4,8.4,0,0,0,82,21.11ZM72.19,43.36h6.17c.62,0,.84-.21.84-.83V35.4c0-.61-.22-.82-.85-.82H66c-.62,0-.84.21-.84.83v7.12c0,.61.22.83.84.83Zm-16.58-.13h4.54c.54,0,.78-.24.78-.76V37.28c0-.53-.24-.76-.77-.76h-9c-.55,0-.78.23-.78.79v5.13c0,.56.23.79.81.79Z" transform="translate(0 -0.7)" fill="#109eb5" fill-rule="evenodd"/><path d="M0,59.28c.31-.27.57-.51.83-.75L20.29,41.19,39,24.54,58.59,7.06A34.37,34.37,0,0,1,61.8,4.37,20.56,20.56,0,0,1,70,1,20.54,20.54,0,0,1,86.11,5a20.28,20.28,0,0,1,7.31,11.18,17.73,17.73,0,0,1,.55,3.4c0,.82.06,1.65.06,2.48,0,1.6,0,3.2,0,4.8V59.27H86.26v-.45q0-19,0-38a11.62,11.62,0,0,0-1.88-6.3A12.45,12.45,0,0,0,76.2,8.74a12.21,12.21,0,0,0-10.12,2.13c-1,.75-1.93,1.67-2.89,2.52L45.51,29.15,26.85,45.78l-15,13.33a.59.59,0,0,1-.42.19H.17Z" transform="translate(0 -0.7)" fill="#109eb5" fill-rule="evenodd"/><path d="M55.51,56.2H29.86a1.84,1.84,0,0,1-.41,0,.63.63,0,0,1-.46-.66c0-.56,0-1.12,0-1.68V49.54c0-.61.21-.83.81-.83H81.22c.6,0,.82.23.82.83v5.84c0,.61-.22.82-.85.82Z" transform="translate(0 -0.7)" fill="#109eb5" fill-rule="evenodd"/><path d="M82,21.11A8.39,8.39,0,1,1,73.6,12.7,8.38,8.38,0,0,1,82,21.11Z" transform="translate(0 -0.7)" fill="#109eb5" fill-rule="evenodd"/><path d="M72.19,43.36H66c-.62,0-.84-.22-.84-.83V35.41c0-.62.22-.83.84-.83H78.35c.63,0,.85.21.85.82v7.13c0,.62-.22.83-.84.83Z" transform="translate(0 -0.7)" fill="#109eb5" fill-rule="evenodd"/><path d="M55.61,43.23H51.16c-.58,0-.81-.23-.81-.79V37.31c0-.56.23-.79.78-.79h9c.53,0,.77.23.77.76v5.19c0,.52-.24.76-.78.76Z" transform="translate(0 -0.7)" fill="#109eb5" fill-rule="evenodd"/><path d="M116.26,27.05a1.08,1.08,0,0,1,.28.75V43.05a1,1,0,0,1-1,1,1,1,0,0,1-.73-.29,1,1,0,0,1-.29-.72V40.78A7.09,7.09,0,0,1,112,43.35a6.88,6.88,0,0,1-3.69,1,7.31,7.31,0,0,1-4.09-1.18A8.14,8.14,0,0,1,101.35,40a10.18,10.18,0,0,1-1-4.64,10,10,0,0,1,1-4.62,8.07,8.07,0,0,1,2.87-3.21,7.58,7.58,0,0,1,7.74-.17,6.49,6.49,0,0,1,2.54,2.58V27.8a1.08,1.08,0,0,1,.29-.75,1,1,0,0,1,.73-.3A1,1,0,0,1,116.26,27.05Zm-4.61,14.52a6.37,6.37,0,0,0,2.2-2.57,8.35,8.35,0,0,0,.8-3.68,8.05,8.05,0,0,0-.8-3.59,6.34,6.34,0,0,0-2.2-2.56,5.92,5.92,0,0,0-6.34,0,6.24,6.24,0,0,0-2.2,2.53,8.11,8.11,0,0,0-.8,3.64,8.48,8.48,0,0,0,.78,3.68,6.2,6.2,0,0,0,2.19,2.57,5.92,5.92,0,0,0,6.37,0Z" transform="translate(0 -0.7)" fill="#191919"/><path d="M133.89,26.61a.87.87,0,0,1,.54.82,1.07,1.07,0,0,1-.27.76.85.85,0,0,1-.64.29,2.8,2.8,0,0,1-.66-.17,2.7,2.7,0,0,0-.93-.17,4,4,0,0,0-2.49,1,7.59,7.59,0,0,0-2,2.49,6.63,6.63,0,0,0-.79,3.09v8.37a1,1,0,0,1-.29.72,1.06,1.06,0,0,1-1.46,0,1,1,0,0,1-.29-.72V27.87a1,1,0,0,1,.29-.73,1.06,1.06,0,0,1,1.46,0,1,1,0,0,1,.29.73v3a7.71,7.71,0,0,1,2.35-3.2,5.87,5.87,0,0,1,3.71-1.31A2.7,2.7,0,0,1,133.89,26.61Z" transform="translate(0 -0.7)" fill="#191919"/><path d="M152.77,28.53a7.8,7.8,0,0,1,1.49,4.93v9.59a1,1,0,0,1-.29.72,1.06,1.06,0,0,1-1.46,0,1,1,0,0,1-.29-.72V33.46a5.75,5.75,0,0,0-1.05-3.58,3.87,3.87,0,0,0-3.28-1.37A5.85,5.85,0,0,0,143.14,31a4.27,4.27,0,0,0-.78,2.46v9.59a1,1,0,0,1-1.74.72,1,1,0,0,1-.29-.72V20a1,1,0,0,1,1.74-.73,1,1,0,0,1,.29.73v9.92a7.22,7.22,0,0,1,2.54-2.39,6.63,6.63,0,0,1,3.32-.93A5.41,5.41,0,0,1,152.77,28.53Z" transform="translate(0 -0.7)" fill="#191919"/><path d="M176,27.14a1,1,0,0,1,.29.73v9.55a6.71,6.71,0,0,1-1.87,5.1,7.13,7.13,0,0,1-5.15,1.78,7,7,0,0,1-5.1-1.78,6.74,6.74,0,0,1-1.84-5.1V27.87a1,1,0,0,1,.28-.73,1,1,0,0,1,.73-.29,1,1,0,0,1,1,1v9.55a5,5,0,0,0,1.29,3.71,4.9,4.9,0,0,0,3.62,1.27,5,5,0,0,0,3.68-1.27,4.94,4.94,0,0,0,1.3-3.71V27.87a1,1,0,0,1,.29-.73,1.06,1.06,0,0,1,1.46,0Z" transform="translate(0 -0.7)" fill="#191919"/><path d="M183,40.57a.73.73,0,0,1,.44-.67.74.74,0,0,1,.55-.21,1,1,0,0,1,.74.34,6.34,6.34,0,0,0,5.32,2.64,5.16,5.16,0,0,0,2.83-.76,2.47,2.47,0,0,0,1.2-2.22A2.34,2.34,0,0,0,193,37.56a10.69,10.69,0,0,0-3.11-1.22,13.22,13.22,0,0,1-4.41-1.85,3.85,3.85,0,0,1-1.59-3.34,4.23,4.23,0,0,1,.78-2.49A5.16,5.16,0,0,1,186.77,27a7.16,7.16,0,0,1,3-.61,8.27,8.27,0,0,1,2.93.56,6.19,6.19,0,0,1,2.52,1.78.79.79,0,0,1,.31.68.91.91,0,0,1-.34.71.93.93,0,0,1-.61.2A.84.84,0,0,1,194,30a5.42,5.42,0,0,0-1.93-1.39,6.24,6.24,0,0,0-2.41-.47,4.87,4.87,0,0,0-2.72.74,2.51,2.51,0,0,0-1.14,2.24A2.46,2.46,0,0,0,187,33.19a12.94,12.94,0,0,0,3.44,1.28,16.87,16.87,0,0,1,2.91,1A4.85,4.85,0,0,1,195.27,37a4.27,4.27,0,0,1,.73,2.61,4.16,4.16,0,0,1-1.76,3.51,7.15,7.15,0,0,1-4.37,1.3,8,8,0,0,1-6.58-3.08A1.52,1.52,0,0,1,183,40.57Z" transform="translate(0 -0.7)" fill="#191919"/><path d="M108.71,50.65a.34.34,0,0,1,.11.28V59a.36.36,0,0,1-.13.28.39.39,0,0,1-.28.11.44.44,0,0,1-.29-.11A.41.41,0,0,1,108,59V55.25h-5.28V59a.43.43,0,0,1-.13.28.41.41,0,0,1-.28.11.44.44,0,0,1-.3-.11.38.38,0,0,1-.11-.28V50.93a.35.35,0,0,1,.12-.28.4.4,0,0,1,.3-.11.44.44,0,0,1,.29.11.41.41,0,0,1,.11.28v3.58H108V50.93a.38.38,0,0,1,.12-.28.44.44,0,0,1,.29-.11A.36.36,0,0,1,108.71,50.65Z" transform="translate(0 -0.7)" fill="#191919"/><path d="M122,59.08a.32.32,0,0,1-.12.26.39.39,0,0,1-.27.1.37.37,0,0,1-.23-.07.45.45,0,0,1-.15-.18l-1-2.33H116l-1,2.33a.36.36,0,0,1-.36.25.37.37,0,0,1-.27-.09.35.35,0,0,1-.1-.24v0a.38.38,0,0,1,0-.12l3.43-8.21a.4.4,0,0,1,.39-.25.37.37,0,0,1,.23.07.65.65,0,0,1,.15.18l3.41,8.17A.61.61,0,0,1,122,59.08Zm-5.66-3h3.61l-1.82-4.34Z" transform="translate(0 -0.7)" fill="#191919"/><path d="M133.12,50.63a.35.35,0,0,1,.12.25.46.46,0,0,1,0,.19l-3.47,8.11a.43.43,0,0,1-.15.18.36.36,0,0,1-.22.07.43.43,0,0,1-.22-.06.45.45,0,0,1-.15-.18l-3.45-8.09a.41.41,0,0,1,0-.21.32.32,0,0,1,.12-.26.35.35,0,0,1,.26-.1.4.4,0,0,1,.39.28l3.13,7.31,3.08-7.34a.4.4,0,0,1,.16-.18.31.31,0,0,1,.2-.07A.39.39,0,0,1,133.12,50.63Z" transform="translate(0 -0.7)" fill="#191919"/><path d="M145.72,50.64a.37.37,0,0,1,.09.25V59a.41.41,0,0,1-.11.3.44.44,0,0,1-.29.11.33.33,0,0,1-.17,0,.28.28,0,0,1-.14-.09L139.53,52v7.13a.34.34,0,0,1-.11.24.37.37,0,0,1-.26.1.35.35,0,0,1-.26-.1.37.37,0,0,1-.1-.24V50.92a.38.38,0,0,1,.11-.28.36.36,0,0,1,.27-.1.37.37,0,0,1,.31.14l5.6,7.38V50.89a.33.33,0,0,1,.1-.25.35.35,0,0,1,.26-.1A.36.36,0,0,1,145.72,50.64Z" transform="translate(0 -0.7)" fill="#191919"/><path d="M157.59,58.8a.36.36,0,0,1,.11.26.37.37,0,0,1-.11.27.4.4,0,0,1-.28.1h-4.77a.41.41,0,0,1-.28-.11.37.37,0,0,1-.11-.27V50.92a.38.38,0,0,1,.39-.38h4.77a.38.38,0,0,1,.28.65.45.45,0,0,1-.28.1H153v3.19h3.75a.36.36,0,0,1,.39.38.3.3,0,0,1-.11.26.38.38,0,0,1-.28.11H153v3.45h4.34A.38.38,0,0,1,157.59,58.8Z" transform="translate(0 -0.7)" fill="#191919"/><path d="M169.56,55.47a2.54,2.54,0,0,1-.3,3.34,3,3,0,0,1-1.95.62h-3.49a.38.38,0,0,1-.28-.11.34.34,0,0,1-.12-.27V50.92a.39.39,0,0,1,.4-.38h3.44a2.37,2.37,0,0,1,1.7.58,2.08,2.08,0,0,1,.62,1.6,2.19,2.19,0,0,1-.34,1.21,1.91,1.91,0,0,1-1,.78A2.36,2.36,0,0,1,169.56,55.47Zm-1.23-3.78a1.62,1.62,0,0,0-1.18-.4h-2.89v3.17h2.89A1.58,1.58,0,0,0,168.3,54a1.63,1.63,0,0,0,.45-1.23A1.43,1.43,0,0,0,168.33,51.69Zm.35,6.56a1.57,1.57,0,0,0,.54-1.3,1.53,1.53,0,0,0-.55-1.3,2.31,2.31,0,0,0-1.43-.42h-3v3.45h3A2.18,2.18,0,0,0,168.68,58.25Z" transform="translate(0 -0.7)" fill="#191919"/><path d="M182.58,59.08a.35.35,0,0,1-.11.26.4.4,0,0,1-.28.1.34.34,0,0,1-.22-.07.34.34,0,0,1-.15-.18l-1-2.33h-4.22l-1,2.33a.36.36,0,0,1-.35.25.37.37,0,0,1-.27-.09.36.36,0,0,1-.11-.24v0a.33.33,0,0,1,0-.12l3.43-8.21a.37.37,0,0,1,.38-.25.35.35,0,0,1,.23.07.43.43,0,0,1,.15.18l3.42,8.17A1.37,1.37,0,0,1,182.58,59.08Zm-5.66-3h3.61l-1.82-4.34Z" transform="translate(0 -0.7)" fill="#191919"/><path d="M193.88,51.14a3.67,3.67,0,0,1,1.27,1.62,5.7,5.7,0,0,1,.42,2.22,5.85,5.85,0,0,1-.42,2.27,3.58,3.58,0,0,1-1.27,1.59,3.63,3.63,0,0,1-2.1.59h-3.31a.38.38,0,0,1-.28-.11.33.33,0,0,1-.11-.27V50.92a.33.33,0,0,1,.11-.27.34.34,0,0,1,.28-.11h3.31A3.56,3.56,0,0,1,193.88,51.14Zm.09,6.52a4.35,4.35,0,0,0,.77-2.68,5,5,0,0,0-.33-1.86,2.86,2.86,0,0,0-1-1.33,3,3,0,0,0-1.75-.5H188.9v7.39h2.75A2.71,2.71,0,0,0,194,57.66Z" transform="translate(0 -0.7)" fill="#191919"/></svg>